<?xml version="1.0" standalone="no"?><!DOCTYPE svg PUBLIC "-//W3C//DTD SVG 1.1//EN" "http://www.w3.org/Graphics/SVG/1.1/DTD/svg11.dtd"><svg t="1704337218190" class="icon" viewBox="0 0 1024 1024" version="1.1" xmlns="http://www.w3.org/2000/svg" p-id="7569" xmlns:xlink="http://www.w3.org/1999/xlink" width="200" height="200"><path d="M987.428571 475.428571c0 262.582857-212.845714 475.428571-475.428571 475.428572S36.571429 738.011429 36.571429 475.428571 249.417143 0 512 0s475.428571 212.845714 475.428571 475.428571z" fill="#F0F3FA" p-id="7570"></path><path d="M736.768 293.174857c-76.982857-47.177143-177.298286-99.785143-177.298286-99.785143-30.08-16.749714-74.733714-11.282286-94.336 0.859429C411.940571 227.291429 275.565714 314.331429 275.565714 314.331429c-15.725714 9.947429-34.377143 31.488-36.132571 64.877714L237.714286 602.605714c-0.018286 23.058286 18.834286 63.908571 48.932571 80.676572 0 0 97.536 57.581714 178.157714 98.176 0.036571 0 48.786286 28.452571 89.417143 2.870857l194.285715-122.477714c20.370286-12.178286 36.534857-41.234286 36.114285-64.859429L786.285714 367.670857c0.365714-48.018286-49.481143-74.496-49.499428-74.496z m-12.196571 279.771429c0.329143 18.432-12.269714 41.069714-28.16 50.56l-151.460572 95.506285c-31.689143 19.931429-69.668571-2.249143-69.705143-2.267428-62.866286-31.634286-138.898286-76.525714-138.898285-76.525714-23.460571-13.074286-38.162286-44.928-38.144-62.902858l1.353142-174.171428c1.353143-26.020571 15.908571-42.788571 28.16-50.578286 0 0 106.313143-67.84 147.785143-93.586286 15.268571-9.472 50.084571-13.750857 73.545143-0.676571 0 0 78.208 41.014857 138.203429 77.787429 0.018286 0 38.875429 20.644571 38.619428 58.075428l-1.298285 178.779429z" fill="#184DA1" p-id="7571"></path><path d="M433.755429 427.483429c2.011429-1.737143 4.132571-3.346286 6.473142-4.699429l50.761143-29.312a42.057143 42.057143 0 0 1 42.075429 0l50.779428 29.312c4.205714 2.413714 7.789714 5.540571 10.843429 9.106286l79.213714-40.941715c-8.649143-14.281143-22.838857-22.144-23.753143-22.656l-0.036571-0.018285c-47.286857-28.982857-108.909714-61.293714-108.909714-61.293715-18.486857-10.294857-45.933714-6.930286-57.965715 0.530286a17300.242286 17300.242286 0 0 0-116.443428 73.746286c-2.797714 1.773714-5.741714 4.224-8.539429 7.186286l75.52 39.04zM489.435429 582.692571l-49.225143-28.416a42.038857 42.038857 0 0 1-21.028572-36.425142v-47.030858l-74.660571-38.582857c-0.274286 32.438857-0.987429 125.257143-0.987429 126.116572 0 14.171429 11.574857 39.259429 30.061715 49.554285 0 0 59.904 35.382857 109.44 60.324572 0 0 2.432 1.389714 6.4 3.035428v-88.576zM604.891429 517.851429v-40.356572l75.446857-39.003428-0.841143 116.406857c0.274286 14.537143-9.673143 32.365714-22.180572 39.862857l-119.350857 75.245714c-0.969143 0.603429-1.938286 1.097143-2.925714 1.590857l-0.420571 0.219429v-89.124572l49.225142-28.416a42.093714 42.093714 0 0 0 21.028572-36.425142z" fill="#FB585E" p-id="7572"></path></svg>